<svg viewBox="0 0 64 64" fill="none" xmlns="http://www.w3.org/2000/svg">
<style>
  .wn-icon { fill: black; }
  @media (prefers-color-scheme: dark) {
    .wn-icon { fill: white; }
  }
</style>
<g clip-path="url(#clip0_919_51)">
  <g filter="url(#filter0_f_919_51)">
    <path d="M20.7127 45.5719L11.4555 49.0408L32.5911 2.98069C32.9478 2.20343 34.0522 2.20343 34.4089 2.98069L55.5445 49.0408L46.2873 45.5719C43.8424 44.6557 41.8527 42.8197 40.7435 40.456L34.4053 26.9495C34.0454 26.1826 32.9546 26.1826 32.5947 26.9495L26.2565 40.456C25.1473 42.8197 23.1576 44.6557 20.7127 45.5719Z" fill="#4285F4" fill-opacity="0.9"/>
    <path d="M61 61L58.2939 55.6389C57.2341 53.5393 55.1704 52.131 52.8289 51.9095C39.9717 50.6936 27.0283 50.6936 14.1711 51.9095C11.8296 52.131 9.76587 53.5393 8.70607 55.6389L6 61L9.75286 60.702C25.5594 59.4469 41.4406 59.4469 57.2471 60.702L61 61Z" fill="#4285F4" fill-opacity="0.9"/>
    <path d="M14.2178 52.4072C26.2421 51.2701 38.3422 51.1994 50.376 52.1943L52.7822 52.4072C54.8168 52.5998 56.6248 53.7592 57.6523 55.5068L57.8477 55.8643L60.1523 60.4307L57.2871 60.2031C42.4437 59.0245 27.5342 58.9511 12.6826 59.9824L9.71289 60.2031L6.84668 60.4307L9.15234 55.8643C10.0733 54.0397 11.8123 52.7787 13.8145 52.459L14.2178 52.4072ZM33.0459 3.18945C33.2131 2.82503 33.7088 2.80207 33.917 3.12109L33.9541 3.18945L54.584 48.1465L46.4629 45.1035C44.2852 44.2875 42.4877 42.7034 41.4033 40.6582L41.1963 40.2432L34.8584 26.7373C34.3354 25.6229 32.7836 25.5881 32.1963 26.6328L32.1416 26.7373L25.8037 40.2432C24.8158 42.3483 23.0931 44.0136 20.9678 44.9307L20.5371 45.1035L12.415 48.1465L33.0459 3.18945Z" stroke="#4285F4" stroke-opacity="0.9"/>
  </g>
  <g filter="url(#filter1_f_919_51)">
    <path d="M16.7127 44.5719L7.45547 48.0408L28.5911 1.98069C28.9478 1.20343 30.0522 1.20343 30.4089 1.98069L51.5445 48.0408L42.2873 44.5719C39.8424 43.6557 37.8527 41.8197 36.7435 39.456L30.4053 25.9495C30.0454 25.1826 28.9546 25.1826 28.5947 25.9495L22.2565 39.456C21.1473 41.8197 19.1576 43.6557 16.7127 44.5719Z" fill="#FF0000" fill-opacity="0.9"/>
    <path d="M57 60L54.2939 54.6389C53.2341 52.5393 51.1704 51.131 48.8289 50.9095C35.9717 49.6936 23.0283 49.6936 10.1711 50.9095C7.8296 51.131 5.76587 52.5393 4.70607 54.6389L2 60L5.75286 59.702C21.5594 58.4469 37.4406 58.4469 53.2471 59.702L57 60Z" fill="#FF0000" fill-opacity="0.9"/>
    <path d="M10.2178 51.4072C22.2421 50.2701 34.3422 50.1994 46.376 51.1943L48.7822 51.4072C50.8168 51.5998 52.6248 52.7592 53.6523 54.5068L53.8477 54.8643L56.1523 59.4307L53.2871 59.2031C38.4437 58.0245 23.5342 57.9511 8.68262 58.9824L5.71289 59.2031L2.84668 59.4307L5.15234 54.8643C6.07331 53.0397 7.81233 51.7787 9.81445 51.459L10.2178 51.4072ZM29.0459 2.18945C29.2131 1.82503 29.7088 1.80207 29.917 2.12109L29.9541 2.18945L50.584 47.1465L42.4629 44.1035C40.2852 43.2875 38.4877 41.7034 37.4033 39.6582L37.1963 39.2432L30.8584 25.7373C30.3354 24.6229 28.7836 24.5881 28.1963 25.6328L28.1416 25.7373L21.8037 39.2432C20.8158 41.3483 19.0931 43.0136 16.9678 43.9307L16.5371 44.1035L8.41504 47.1465L29.0459 2.18945Z" stroke="#FF0000" stroke-opacity="0.9"/>
  </g>
  <g filter="url(#filter2_f_919_51)">
    <path d="M17.7159 48.3136L8.45547 51.8415L29.5885 5.01942C29.9428 4.2346 31.0572 4.2346 31.4115 5.01942L52.5445 51.8415L43.2841 48.3136C40.8415 47.383 38.8603 45.533 37.7648 43.1597L31.4079 29.3878C31.0504 28.6132 29.9496 28.6132 29.5921 29.3878L23.2352 43.1597C22.1397 45.533 20.1585 47.383 17.7159 48.3136Z" fill="#99EEBB" fill-opacity="0.9"/>
    <path d="M58 64L55.257 58.4752C54.221 56.3884 52.1812 54.9842 49.8621 54.7612C36.9837 53.523 24.0163 53.523 11.1379 54.7612C8.81881 54.9842 6.77904 56.3884 5.743 58.4752L3 64L6.35963 63.7288C22.4271 62.4317 38.5729 62.4317 54.6404 63.7288L58 64Z" fill="#99EEBB" fill-opacity="0.9"/>
    <path d="M11.1855 55.2588C23.2291 54.1009 35.351 54.0288 47.4043 55.042L49.8145 55.2588C51.8273 55.4524 53.6125 56.6074 54.6182 58.3428L54.8096 58.6973L57.1582 63.4307L54.6807 63.2305C39.0893 61.9718 23.4241 61.9323 7.82812 63.1123L6.31934 63.2305L3.84082 63.4307L6.19043 58.6973C7.08967 56.8861 8.80605 55.6306 10.7861 55.3105L11.1855 55.2588ZM30.0439 5.22559C30.21 4.85772 30.7101 4.8344 30.918 5.15625L30.9561 5.22559L51.5898 50.9424L43.4619 47.8467C41.2865 47.0179 39.4966 45.4211 38.4238 43.3672L38.2188 42.9502L31.8623 29.1787C31.3428 28.0533 29.7764 28.0174 29.1914 29.0723L29.1377 29.1787L22.7812 42.9502C21.8056 45.0639 20.0905 46.7411 17.9678 47.6709L17.5381 47.8467L9.40918 50.9424L30.0439 5.22559Z" stroke="#99EEBB" stroke-opacity="0.9"/>
  </g>
  <path d="M18.7127 45.5719L9.45547 49.0408L30.5911 2.98069C30.9478 2.20343 32.0522 2.20343 32.4089 2.98069L53.5445 49.0408L44.2873 45.5719C41.8424 44.6557 39.8527 42.8197 38.7435 40.456L32.4053 26.9495C32.0454 26.1826 30.9546 26.1826 30.5947 26.9495L24.2565 40.456C23.1473 42.8197 21.1576 44.6557 18.7127 45.5719Z" class="wn-icon"/>
  <path d="M59 61L56.2939 55.6389C55.2341 53.5393 53.1704 52.131 50.8289 51.9095C37.9717 50.6936 25.0283 50.6936 12.1711 51.9095C9.8296 52.131 7.76587 53.5393 6.70607 55.6389L4 61L7.75286 60.702C23.5594 59.4469 39.4406 59.4469 55.2471 60.702L59 61Z" class="wn-icon"/>
</g>
<defs>
<filter id="filter0_f_919_51" x="5" y="1.39775" width="57" height="60.6023" filterUnits="userSpaceOnUse" color-interpolation-filters="sRGB">
<feFlood flood-opacity="0" result="BackgroundImageFix"/>
<feBlend mode="normal" in="SourceGraphic" in2="BackgroundImageFix" result="shape"/>
<feGaussianBlur stdDeviation="0.5" result="effect1_foregroundBlur_919_51"/>
</filter>
<filter id="filter1_f_919_51" x="1" y="0.397747" width="57" height="60.6023" filterUnits="userSpaceOnUse" color-interpolation-filters="sRGB">
<feFlood flood-opacity="0" result="BackgroundImageFix"/>
<feBlend mode="normal" in="SourceGraphic" in2="BackgroundImageFix" result="shape"/>
<feGaussianBlur stdDeviation="0.5" result="effect1_foregroundBlur_919_51"/>
</filter>
<filter id="filter2_f_919_51" x="2" y="3.43081" width="57" height="61.5692" filterUnits="userSpaceOnUse" color-interpolation-filters="sRGB">
<feFlood flood-opacity="0" result="BackgroundImageFix"/>
<feBlend mode="normal" in="SourceGraphic" in2="BackgroundImageFix" result="shape"/>
<feGaussianBlur stdDeviation="0.5" result="effect1_foregroundBlur_919_51"/>
</filter>
<clipPath id="clip0_919_51">
<rect width="64" height="64" fill="white"/>
</clipPath>
</defs>
</svg>
